<svg xmlns="http://www.w3.org/2000/svg" xmlns:xlink="http://www.w3.org/1999/xlink" width="1230.562" height="803.999" viewBox="0 0 1230.562 803.999"><defs><filter id="a" x="0" y="0" width="1230.562" height="803.999" filterUnits="userSpaceOnUse"><feOffset dy="3" input="SourceAlpha"/><feGaussianBlur stdDeviation="4" result="b"/><feFlood flood-opacity="0.071"/><feComposite operator="in" in2="b"/><feComposite in="SourceGraphic"/></filter><filter id="c" x="13.969" y="159.969" width="69.188" height="69.187" filterUnits="userSpaceOnUse"><feOffset dy="3" input="SourceAlpha"/><feGaussianBlur stdDeviation="3" result="d"/><feFlood flood-opacity="0.102"/><feComposite operator="in" in2="d"/><feComposite in="SourceGraphic"/></filter><filter id="e" x="13.969" y="233.312" width="69.188" height="69.187" filterUnits="userSpaceOnUse"><feOffset dy="3" input="SourceAlpha"/><feGaussianBlur stdDeviation="3" result="f"/><feFlood flood-opacity="0.102"/><feComposite operator="in" in2="f"/><feComposite in="SourceGraphic"/></filter><linearGradient id="g" y1="0.568" x2="1" y2="0.583" gradientUnits="objectBoundingBox"><stop offset="0" stop-color="#ffb8b0" stop-opacity="0"/><stop offset="1" stop-color="#ffb8b0"/></linearGradient><filter id="h" x="13.969" y="86.844" width="69.188" height="69.187" filterUnits="userSpaceOnUse"><feOffset dy="3" input="SourceAlpha"/><feGaussianBlur stdDeviation="3" result="i"/><feFlood flood-opacity="0.102"/><feComposite operator="in" in2="i"/><feComposite in="SourceGraphic"/></filter><filter id="j" x="3.281" y="4.5" width="1222.78" height="88.125" filterUnits="userSpaceOnUse"><feOffset dy="3" input="SourceAlpha"/><feGaussianBlur stdDeviation="2.5" result="k"/><feFlood flood-opacity="0.129"/><feComposite operator="in" in2="k"/><feComposite in="SourceGraphic"/></filter><filter id="l" x="22.5" y="13.969" width="69.188" height="69.187" filterUnits="userSpaceOnUse"><feOffset dy="3" input="SourceAlpha"/><feGaussianBlur stdDeviation="3" result="m"/><feFlood flood-opacity="0.102"/><feComposite operator="in" in2="m"/><feComposite in="SourceGraphic"/></filter><filter id="n" x="405.187" y="13.969" width="69.188" height="69.187" filterUnits="userSpaceOnUse"><feOffset dy="3" input="SourceAlpha"/><feGaussianBlur stdDeviation="3" result="o"/><feFlood flood-opacity="0.102"/><feComposite operator="in" in2="o"/><feComposite in="SourceGraphic"/></filter></defs><g transform="translate(-345.829 -141)"><g transform="matrix(1, 0, 0, 1, 345.83, 141)" filter="url(#a)"><rect width="1206.562" height="779.999" transform="translate(12 9)" fill="#fdfcff"/></g><rect width="390" height="779.999" transform="translate(356.61 150)" fill="#fdfcff"/><g transform="translate(0 -9)"><g transform="translate(356.61 305)"><rect width="390" height="73.125" transform="translate(0)" fill="#fff"/><line x2="390" transform="translate(0.609 73.734)" fill="none" stroke="rgba(112,112,112,0.15)" stroke-width="1"/><g transform="matrix(1, 0, 0, 1, -10.78, -155)" filter="url(#c)"><circle cx="25.594" cy="25.594" r="25.594" transform="translate(22.97 165.97)" fill="#fff"/></g><text transform="translate(71.906 32.062)" fill="#a8a8a8" font-size="14" font-family="SegoeUI, Segoe UI"><tspan x="0" y="0">João Silva</tspan></text><text transform="translate(71.906 51.562)" fill="#757575" font-size="14" font-family="SegoeUI, Segoe UI"><tspan x="0" y="0">Coé viado!</tspan></text></g><path d="M12.933,6.594l-1-1L7.416,10.1l1,1Zm3.019-1L8.419,13.122,5.443,10.154l-1,1,3.98,3.98,8.543-8.543ZM.41,11.157l3.98,3.98,1-1-3.973-3.98Z" transform="translate(504.685 340.808)" fill="rgba(0,0,0,0.33)"/></g><g transform="translate(0 -77)"><g transform="translate(356.61 446.344)"><rect width="390" height="73.125" transform="translate(0 0)" fill="#fff"/><line x2="390" transform="translate(0.609 73.734)" fill="none" stroke="rgba(112,112,112,0.15)" stroke-width="1"/><g transform="matrix(1, 0, 0, 1, -10.78, -228.34)" filter="url(#e)"><circle cx="25.594" cy="25.594" r="25.594" transform="translate(22.97 239.31)" fill="#fff"/></g><text transform="translate(71.906 32.062)" fill="#a8a8a8" font-size="14" font-family="SegoeUI, Segoe UI"><tspan x="0" y="0">Pessoa chata</tspan></text><text transform="translate(71.906 51.562)" fill="#757575" font-size="14" font-family="SegoeUI, Segoe UI"><tspan x="0" y="0">Uma mensagem de spam!</tspan></text></g><g transform="translate(0 27)"><rect width="390" height="73.125" transform="translate(356.61 419.344)" fill="url(#g)"/><path d="M7.766,8.56l-.4-.4L5.555,6.35,4.421,5.215,1.754,2.548.936,1.73,0,2.666,1.481,4.147,1.474,16.665l2.947-2.947h6.631l4.222,4.222L16.209,17l-3.286-3.286L7.766,8.56ZM5.894,10.77H4.421V9.3H5.894ZM4.421,8.56V7.086L5.894,8.56ZM14.736,1.929H3.006L7.368,6.291V4.876h5.894V6.35H7.427l.737.737h5.1V8.56H9.637l5.15,5.15a1.471,1.471,0,0,0,1.422-1.466V3.4A1.478,1.478,0,0,0,14.736,1.929Z" transform="translate(713.703 446.864)" fill="#fff"/></g></g><g transform="translate(0 -9)"><g transform="translate(356.61 231.875)"><rect width="390" height="73.125" transform="translate(0)" fill="#fff"/><line x2="390" transform="translate(0.609 73.734)" fill="none" stroke="rgba(112,112,112,0.15)" stroke-width="1"/><g transform="matrix(1, 0, 0, 1, -10.78, -81.87)" filter="url(#h)"><circle cx="25.594" cy="25.594" r="25.594" transform="translate(22.97 92.84)" fill="#fff"/></g><text transform="translate(71.906 32.062)" fill="#a8a8a8" font-size="14" font-family="SegoeUI, Segoe UI"><tspan x="0" y="0">Lara Dalvi</tspan></text><text transform="translate(71.906 51.562)" fill="#757575" font-size="14" font-family="SegoeUI-Bold, Segoe UI" font-weight="700"><tspan x="0" y="0">Lorem Ipsum dolor sit amet chaingin...</tspan></text><g transform="translate(359.531 17.062)"><circle cx="9.141" cy="9.141" r="9.141" transform="translate(-0.141 0.062)" fill="#7be0d8"/><text transform="translate(8.859 14.062)" fill="#fff" font-size="11" font-family="SegoeUI-Bold, Segoe UI" font-weight="700"><tspan x="-3.164" y="0">1</tspan></text></g></g><rect width="7.312" height="73.125" transform="translate(740.297 231.875)" fill="#7be0d8"/></g><g transform="matrix(1, 0, 0, 1, 345.83, 141)" filter="url(#j)"><rect width="1207.78" height="73.125" transform="translate(10.78 9)" fill="#7be0d8"/></g><g transform="matrix(1, 0, 0, 1, 345.83, 141)" filter="url(#l)"><circle cx="25.594" cy="25.594" r="25.594" transform="translate(31.5 19.97)" fill="#fff"/></g><text transform="translate(440.704 193.375)" fill="#fff" font-size="18" font-family="SegoeUI, Segoe UI"><tspan x="0" y="0">Daniel Bonifacio</tspan></text><rect width="816.562" height="73.125" transform="translate(747.828 150)" fill="#fdfcff"/><g transform="matrix(1, 0, 0, 1, 345.83, 141)" filter="url(#n)"><circle cx="25.594" cy="25.594" r="25.594" transform="translate(414.19 19.97)" fill="#fff"/></g><text transform="translate(823.391 193.375)" fill="#53c2e0" font-size="18" font-family="SegoeUI, Segoe UI"><tspan x="0" y="0">Marcos</tspan></text><g transform="translate(1380.359 168.282)"><circle cx="18.281" cy="18.281" r="18.281" fill="rgba(167,167,167,0)"/><path d="M15.18,6.59h-.8v-1.6a3.993,3.993,0,1,0-7.986,0v1.6H5.6A1.6,1.6,0,0,0,4,8.187v7.986a1.6,1.6,0,0,0,1.6,1.6H15.18a1.6,1.6,0,0,0,1.6-1.6V8.187A1.6,1.6,0,0,0,15.18,6.59Zm-4.791,7.187a1.6,1.6,0,1,1,1.6-1.6A1.6,1.6,0,0,1,10.389,13.777ZM12.864,6.59H7.913v-1.6a2.476,2.476,0,1,1,4.951,0Z" transform="translate(8.187 8.75)" fill="#53c2e0"/></g><g transform="translate(1441.297 168.282)"><circle cx="18.281" cy="18.281" r="18.281" fill="rgba(167,167,167,0)"/><path d="M14.109,12.776h-.7l-.249-.24a5.785,5.785,0,1,0-.622.622l.24.249v.7l4.444,4.435,1.324-1.324Zm-5.332,0a4,4,0,1,1,4-4A3.994,3.994,0,0,1,8.777,12.776Z" transform="translate(7.969 7.969)" fill="#53c2e0"/></g><g transform="translate(1502.234 168.282)"><circle cx="18.281" cy="18.281" r="18.281" fill="#53c2e0"/><path d="M11.865,7.73A1.865,1.865,0,1,0,10,5.865,1.87,1.87,0,0,0,11.865,7.73Zm0,1.865A1.865,1.865,0,1,0,13.73,11.46,1.87,1.87,0,0,0,11.865,9.595Zm0,5.595a1.865,1.865,0,1,0,1.865,1.865A1.87,1.87,0,0,0,11.865,15.189Z" transform="translate(5.844 6.969)" fill="#fff"/></g><rect width="816.562" height="60.937" transform="translate(747.828 869.062)" fill="#fff"/><g transform="translate(770.984 881.25)" fill="#fff" stroke="#7be0d8" stroke-width="1"><rect width="708.093" height="36.562" rx="15" stroke="none"/><rect x="0.5" y="0.5" width="707.093" height="35.562" rx="14.5" fill="none"/></g><g transform="translate(1503.453 881.25)" fill="#fff" stroke="#7be0d8" stroke-width="1"><circle cx="18.281" cy="18.281" r="18.281" stroke="none"/><circle cx="18.281" cy="18.281" r="17.781" fill="none"/></g><path d="M2.008,17.044l16.377-7.022L2.008,3,2,8.462l11.7,1.56L2,11.582Z" transform="translate(1513.64 889.218)" fill="#7be0d8"/><g transform="translate(1173.172 605.812)"><g transform="translate(23.156)"><path d="M15,0H328.687a15,15,0,0,1,15,15V36.562a0,0,0,0,1,0,0H15a15,15,0,0,1-15-15V15A15,15,0,0,1,15,0Z" fill="#fff"/><text transform="translate(12.187 23.531)" fill="#757575" font-size="14" font-family="SegoeUI, Segoe UI"><tspan x="0" y="0">Fala meu cuzinho de mel extraído do Himalaia</tspan></text><path d="M9.639,6.33,8.9,5.59,5.573,8.916l.74.74Zm2.225-.74L6.312,11.141,4.119,8.953l-.74.74,2.933,2.933,6.3-6.3ZM.41,9.693l2.933,2.933.74-.74L1.155,8.953Z" transform="translate(319.196 12.691)" fill="#7be0d8"/></g><g transform="translate(9.75 42.656)"><path d="M15,0H357.093a0,0,0,0,1,0,0V36.562a0,0,0,0,1,0,0H15a15,15,0,0,1-15-15V15A15,15,0,0,1,15,0Z" fill="#fff"/><text transform="translate(313.188 23.531)" fill="#757575" font-size="14" font-family="SegoeUI, Segoe UI"><tspan x="-297.657" y="0">Amanhã vê se traz meu gel para cabelo másculo</tspan></text><path d="M9.639,6.33,8.9,5.59,5.573,8.916l.74.74Zm2.225-.74L6.312,11.141,4.119,8.953l-.74.74,2.933,2.933,6.3-6.3ZM.41,9.693l2.933,2.933.74-.74L1.155,8.953Z" transform="translate(332.602 12.691)" fill="#7be0d8"/></g><g transform="translate(0 85.312)"><path d="M15,0H366.843a0,0,0,0,1,0,0V21.562a15,15,0,0,1-15,15H15a15,15,0,0,1-15-15V15A15,15,0,0,1,15,0Z" fill="#fff"/><text transform="translate(322.188 23.531)" fill="#757575" font-size="14" font-family="SegoeUI, Segoe UI"><tspan x="-307.542" y="0">Não estou aguentando mais esse cabelo ao vento</tspan></text><path d="M9.639,6.33,8.9,5.59,5.573,8.916l.74.74Zm2.225-.74L6.312,11.141,4.119,8.953l-.74.74,2.933,2.933,6.3-6.3ZM.41,9.693l2.933,2.933.74-.74L1.155,8.953Z" transform="translate(342.352 12.691)" fill="#7be0d8"/></g></g><g transform="translate(770.984 777.656)"><g transform="translate(0)"><path d="M15,0H147.711a15,15,0,0,1,15,15v6.562a15,15,0,0,1-15,15H0a0,0,0,0,1,0,0V15A15,15,0,0,1,15,0Z" fill="#fff"/><text transform="translate(12.187 23.531)" fill="#757575" font-size="14" font-family="SegoeUI, Segoe UI"><tspan x="0" y="0">Pódexa piranha russa</tspan></text></g><g transform="translate(0 42.656)"><path d="M0,0H240.875a15,15,0,0,1,15,15v6.562a15,15,0,0,1-15,15H15a15,15,0,0,1-15-15V0A0,0,0,0,1,0,0Z" fill="#fff"/><text transform="translate(12.187 23.531)" fill="#757575" font-size="14" font-family="SegoeUI, Segoe UI"><tspan x="0" y="0">Sei que você usa isso de lubrificante</tspan></text></g></g><g transform="translate(1134.172 557.063)"><rect width="45.094" height="24.375" rx="5" transform="translate(-0.172 -0.063)" fill="#53c2e0"/><text transform="translate(36.828 16.937)" fill="#fdfcff" font-size="11" font-family="SegoeUI, Segoe UI"><tspan x="-25.54" y="0">HOJE</tspan></text></g></g></svg>